# xmcd
#
# Track frame offsets:
#	150
#	16700
#	39533
#	55993
#	74395
#	96715
#	123753
#	148153
#	173328
#	194575
#
# Disc length: 2971
#
# Revision: 1
# Processed by: cddbd v1.5.1PL0 Copyright (c) Steve Scherf et al.
# Submitted via: CDex 1.51
# Normalized: r0:DSETVAR2,TDELIM( - )
#
DISCID=8b0b990a
DTITLE=Various Artist - Nueva Mezcla Vol 1
DYEAR=1998
DGENRE=Merengue
TTITLE0=El Cepillo - Fulanito
TTITLE1=No Es Verdad - Sancocho Oro Solido
TTITLE2=Yo La Vi - cuerpo y Alma
TTITLE3=Guallando - Fulanito
TTITLE4=Calor - La Magia
TTITLE5=El Cepillo - Fulanito CitronelleMix
TTITLE6=Arcen Las Manos - Sancocho
TTITLE7=Dar La Vuelta - 2 in a Room
TTITLE8=Pum Pum Pum - Cuerpo y Alma
TTITLE9=La Nueva Mezcla - Medley
EXTD=YEAR: 1998
EXTT0=
EXTT1=
EXTT2=
EXTT3=
EXTT4=
EXTT5=
EXTT6=
EXTT7=
EXTT8=
EXTT9=
PLAYORDER=
